<svg xmlns="http://www.w3.org/2000/svg" viewBox="0 0 1200 100">
  <!-- Top rail -->
  <line x1="0" y1="20" x2="1200" y2="20" stroke="black" stroke-width="5"/>
  <!-- Bottom rail -->
  <line x1="0" y1="80" x2="1200" y2="80" stroke="black" stroke-width="5"/>
  <!-- Vertical balusters -->
  <line x1="10" y1="10" x2="10" y2="90" stroke="black" stroke-width="4"/>
  <line x1="60" y1="20" x2="60" y2="80" stroke="black" stroke-width="2.5"/>
  <line x1="110" y1="20" x2="110" y2="80" stroke="black" stroke-width="2.5"/>
  <line x1="160" y1="20" x2="160" y2="80" stroke="black" stroke-width="2.5"/>
  <line x1="210" y1="10" x2="210" y2="90" stroke="black" stroke-width="4"/>
  <line x1="260" y1="20" x2="260" y2="80" stroke="black" stroke-width="2.5"/>
  <line x1="310" y1="20" x2="310" y2="80" stroke="black" stroke-width="2.5"/>
  <line x1="360" y1="20" x2="360" y2="80" stroke="black" stroke-width="2.5"/>
  <line x1="410" y1="10" x2="410" y2="90" stroke="black" stroke-width="4"/>
  <line x1="460" y1="20" x2="460" y2="80" stroke="black" stroke-width="2.5"/>
  <line x1="510" y1="20" x2="510" y2="80" stroke="black" stroke-width="2.5"/>
  <line x1="560" y1="20" x2="560" y2="80" stroke="black" stroke-width="2.5"/>
  <line x1="610" y1="10" x2="610" y2="90" stroke="black" stroke-width="4"/>
  <line x1="660" y1="20" x2="660" y2="80" stroke="black" stroke-width="2.5"/>
  <line x1="710" y1="20" x2="710" y2="80" stroke="black" stroke-width="2.5"/>
  <line x1="760" y1="20" x2="760" y2="80" stroke="black" stroke-width="2.5"/>
  <line x1="810" y1="10" x2="810" y2="90" stroke="black" stroke-width="4"/>
  <line x1="860" y1="20" x2="860" y2="80" stroke="black" stroke-width="2.5"/>
  <line x1="910" y1="20" x2="910" y2="80" stroke="black" stroke-width="2.5"/>
  <line x1="960" y1="20" x2="960" y2="80" stroke="black" stroke-width="2.5"/>
  <line x1="1010" y1="10" x2="1010" y2="90" stroke="black" stroke-width="4"/>
  <line x1="1060" y1="20" x2="1060" y2="80" stroke="black" stroke-width="2.5"/>
  <line x1="1110" y1="20" x2="1110" y2="80" stroke="black" stroke-width="2.5"/>
  <line x1="1160" y1="20" x2="1160" y2="80" stroke="black" stroke-width="2.5"/>
  <line x1="1190" y1="10" x2="1190" y2="90" stroke="black" stroke-width="4"/>
</svg>
